<svg width="58" height="47" viewBox="0 0 58 47" fill="none" xmlns="http://www.w3.org/2000/svg">
<path fill-rule="evenodd" clip-rule="evenodd" d="M23.2037 3.84393C22.9792 3.98878 22.7179 4.05934 22.4529 4.04077V4.04448C19.4092 4.04448 16.8917 6.24312 16.8697 7.55414C16.8697 8.20036 17.3739 8.50118 18.0548 8.62746C20.3771 9.02856 21.6616 9.94961 23.4429 12.7833C24.7827 14.8687 26.459 17.5061 27.4923 19.1318C28.0287 19.9758 28.3918 20.5472 28.4446 20.6271C28.6691 20.9725 28.7943 21.0096 28.9599 21.0096C29.1255 21.0096 29.258 20.9762 29.4936 20.6271C29.5448 20.5435 29.9413 19.923 30.5214 19.0151C31.5652 17.3814 33.2036 14.817 34.4953 12.7759C36.3244 9.93104 37.5648 9.02485 39.8834 8.62374C40.5717 8.49747 41.0685 8.19664 41.0685 7.55042C41.0685 6.24312 38.5658 4.04077 35.5037 4.04077C35.2387 4.05934 34.9737 3.98878 34.7529 3.84393C34.5321 3.69909 34.3628 3.48368 34.2708 3.23114C33.7629 2.25438 33.001 1.43732 32.0699 0.869087C31.1387 0.300858 30.0677 3.05176e-05 28.9783 3.05176e-05C27.8889 3.05176e-05 26.8179 0.300858 25.8867 0.869087C24.9519 1.44103 24.19 2.25438 23.6858 3.23114C23.5975 3.48368 23.4245 3.69909 23.2037 3.84393ZM21.2531 15.1899C18.743 11.2421 15.6293 9.96818 12.6924 9.96818H12.6887C8.78006 9.96818 7.36677 12.0405 7.36677 12.8836C7.36677 13.2253 7.54711 13.5298 8.13966 13.5298C10.9258 13.5298 12.6776 15.1974 14.0357 17.4294C15.3938 19.6652 22.1474 30.6064 22.2357 30.7327C22.2762 30.8144 22.3388 30.8887 22.4161 30.9369C22.497 30.9889 22.5854 31.0149 22.6774 31.0149C22.7731 31.0149 22.8651 30.9889 22.9461 30.9407C23.027 30.8924 23.097 30.8218 23.1411 30.7401C23.2368 30.5841 26.7958 24.9353 26.8804 24.8164C26.9541 24.7087 26.9945 24.5824 26.9982 24.4525C26.9945 24.3262 26.9577 24.2036 26.8841 24.1033C26.8179 23.9808 22.5302 17.1917 21.2531 15.1899ZM20.3698 46.346C21.1169 46.7768 21.9634 46.9996 22.8246 46.9996C23.6858 47.0108 24.536 46.7917 25.2868 46.3608C26.0376 45.9337 26.6596 45.3098 27.0939 44.5559C28.0803 42.97 42.5554 19.6615 43.9098 17.4332C45.2642 15.2048 47.0124 13.5335 49.8022 13.5335C50.3947 13.5335 50.5788 13.229 50.5788 12.8873C50.5788 12.0443 49.1471 9.9719 45.2385 9.9719C42.2904 9.9719 39.1878 11.2458 36.6778 15.1937C35.3896 17.1917 25.4046 33.0762 23.292 36.4781C23.2 36.6378 23.0197 36.8904 22.7657 36.8904C22.5118 36.8904 22.3829 36.7344 22.221 36.4781C17.937 29.7114 12.1955 20.5826 12.1955 20.5826C9.84738 16.8018 7.13122 15.8807 4.79782 15.8807C1.70258 15.8807 -0.00146484 17.5037 -0.00146484 18.577C-0.00146484 18.9596 0.164155 19.3718 0.900242 19.3718C2.76254 19.3718 3.46183 20.3486 5.51551 23.6911C7.07233 26.1534 18.5663 44.5447 18.5663 44.5447C19.0006 45.2949 19.6226 45.9152 20.3698 46.346ZM52.4779 23.6911C54.5352 20.3486 55.2308 19.3718 57.0931 19.3718H57.0968C57.8256 19.3718 57.9985 18.9596 57.9985 18.577C57.9985 17.5037 56.2945 15.8807 53.1992 15.8807C50.8732 15.8807 48.1754 16.8018 45.8016 20.5826C45.8016 20.5826 31.2528 43.6682 31.1571 43.8317C31.0136 43.9876 30.9216 44.1808 30.8884 44.3887C30.9216 44.5967 31.0136 44.7861 31.1571 44.9347C31.6208 45.5772 32.2318 46.0972 32.9348 46.4574C33.6377 46.8139 34.4143 46.9996 35.2019 46.9996C36.0595 47.0033 36.9059 46.7768 37.6531 46.346C38.4002 45.9152 39.0222 45.2949 39.4565 44.5447C39.4565 44.5447 50.9542 26.1534 52.4779 23.6911Z" fill="url(#paint0_linear_0_268)"/>
<defs>
<linearGradient id="paint0_linear_0_268" x1="28.9985" y1="3.05176e-05" x2="28.9985" y2="47" gradientUnits="userSpaceOnUse">
<stop stop-color="#BAE8FF"/>
<stop offset="1" stop-color="#0098E2"/>
</linearGradient>
</defs>
</svg>
