<svg width="32" height="32" viewBox="0 0 32 32" fill="none" xmlns="http://www.w3.org/2000/svg">
<g clip-path="url(#clip0_29_109)">
<path d="M21.332 5.33301H10.6654C7.71985 5.33301 5.33203 7.72082 5.33203 10.6663V21.333C5.33203 24.2785 7.71985 26.6663 10.6654 26.6663H21.332C24.2775 26.6663 26.6654 24.2785 26.6654 21.333V10.6663C26.6654 7.72082 24.2775 5.33301 21.332 5.33301Z" stroke="url(#paint0_linear_29_109)" stroke-width="2" stroke-linecap="round" stroke-linejoin="round"/>
<path d="M16 20C18.2091 20 20 18.2091 20 16C20 13.7909 18.2091 12 16 12C13.7909 12 12 13.7909 12 16C12 18.2091 13.7909 20 16 20Z" stroke="url(#paint1_linear_29_109)" stroke-width="2" stroke-linecap="round" stroke-linejoin="round"/>
<path d="M22 10V10.001" stroke="url(#paint2_linear_29_109)" stroke-width="2" stroke-linecap="round" stroke-linejoin="round"/>
</g>
<defs>
<linearGradient id="paint0_linear_29_109" x1="5.33203" y1="15.9997" x2="26.6654" y2="15.9997" gradientUnits="userSpaceOnUse">
<stop stop-color="#BAE8FF"/>
<stop offset="1" stop-color="#0098E2"/>
</linearGradient>
<linearGradient id="paint1_linear_29_109" x1="12" y1="16" x2="20" y2="16" gradientUnits="userSpaceOnUse">
<stop stop-color="#BAE8FF"/>
<stop offset="1" stop-color="#0098E2"/>
</linearGradient>
<linearGradient id="paint2_linear_29_109" x1="22" y1="10.0005" x2="23" y2="10.0005" gradientUnits="userSpaceOnUse">
<stop stop-color="#BAE8FF"/>
<stop offset="1" stop-color="#0098E2"/>
</linearGradient>
<clipPath id="clip0_29_109">
<rect width="32" height="32" fill="white"/>
</clipPath>
</defs>
</svg>
