<svg width="32" height="32" viewBox="0 0 32 32" fill="none" xmlns="http://www.w3.org/2000/svg">
<g clip-path="url(#clip0_29_111)">
<path d="M23.9987 5.33301H7.9987C6.52594 5.33301 5.33203 6.52692 5.33203 7.99967V23.9997C5.33203 25.4724 6.52594 26.6663 7.9987 26.6663H23.9987C25.4715 26.6663 26.6654 25.4724 26.6654 23.9997V7.99967C26.6654 6.52692 25.4715 5.33301 23.9987 5.33301Z" stroke="url(#paint0_linear_29_111)" stroke-width="2" stroke-linecap="round" stroke-linejoin="round"/>
<path d="M10.668 14.667V21.3337" stroke="url(#paint1_linear_29_111)" stroke-width="2" stroke-linecap="round" stroke-linejoin="round"/>
<path d="M10.668 10.667V10.6803" stroke="url(#paint2_linear_29_111)" stroke-width="2" stroke-linecap="round" stroke-linejoin="round"/>
<path d="M16 21.3337V14.667" stroke="url(#paint3_linear_29_111)" stroke-width="2" stroke-linecap="round" stroke-linejoin="round"/>
<path d="M21.3333 21.3337V17.3337C21.3333 16.6264 21.0524 15.9481 20.5523 15.448C20.0522 14.9479 19.3739 14.667 18.6667 14.667C17.9594 14.667 17.2811 14.9479 16.781 15.448C16.281 15.9481 16 16.6264 16 17.3337" stroke="url(#paint4_linear_29_111)" stroke-width="2" stroke-linecap="round" stroke-linejoin="round"/>
</g>
<defs>
<linearGradient id="paint0_linear_29_111" x1="5.33203" y1="15.9997" x2="26.6654" y2="15.9997" gradientUnits="userSpaceOnUse">
<stop stop-color="#BAE8FF"/>
<stop offset="1" stop-color="#0098E2"/>
</linearGradient>
<linearGradient id="paint1_linear_29_111" x1="10.668" y1="18.0003" x2="11.668" y2="18.0003" gradientUnits="userSpaceOnUse">
<stop stop-color="#BAE8FF"/>
<stop offset="1" stop-color="#0098E2"/>
</linearGradient>
<linearGradient id="paint2_linear_29_111" x1="10.668" y1="10.6737" x2="11.668" y2="10.6737" gradientUnits="userSpaceOnUse">
<stop stop-color="#BAE8FF"/>
<stop offset="1" stop-color="#0098E2"/>
</linearGradient>
<linearGradient id="paint3_linear_29_111" x1="16" y1="18.0003" x2="17" y2="18.0003" gradientUnits="userSpaceOnUse">
<stop stop-color="#BAE8FF"/>
<stop offset="1" stop-color="#0098E2"/>
</linearGradient>
<linearGradient id="paint4_linear_29_111" x1="16" y1="18.0003" x2="21.3333" y2="18.0003" gradientUnits="userSpaceOnUse">
<stop stop-color="#BAE8FF"/>
<stop offset="1" stop-color="#0098E2"/>
</linearGradient>
<clipPath id="clip0_29_111">
<rect width="32" height="32" fill="white"/>
</clipPath>
</defs>
</svg>
