<svg width="272" height="104" viewBox="0 0 272 104" fill="none" xmlns="http://www.w3.org/2000/svg">
<path d="M27.1133 32.5547H11.0586V27.4375H27.1133V32.5547ZM29.3789 21.0703H9.02734V44H3.94922V18.5508C3.94922 18.1992 4.01432 17.8672 4.14453 17.5547C4.27474 17.2422 4.45052 16.9688 4.67188 16.7344C4.90625 16.5 5.17969 16.3177 5.49219 16.1875C5.80469 16.0573 6.14323 15.9922 6.50781 15.9922H29.3789V21.0703ZM76.9219 41.4414C76.9219 41.806 76.8568 42.1445 76.7266 42.457C76.5964 42.7695 76.4141 43.043 76.1797 43.2773C75.9453 43.4987 75.6719 43.6745 75.3594 43.8047C75.0469 43.9349 74.7148 44 74.3633 44H62.918C61.8372 44 60.7435 43.8828 59.6367 43.6484C58.5299 43.4141 57.4557 43.056 56.4141 42.5742C55.3854 42.0794 54.4154 41.4544 53.5039 40.6992C52.5924 39.944 51.7917 39.0521 51.1016 38.0234C50.4245 36.9818 49.8906 35.7969 49.5 34.4688C49.1094 33.1276 48.9141 31.6367 48.9141 29.9961V15.9922H53.9922V29.9961C53.9922 31.4284 54.1875 32.6393 54.5781 33.6289C54.9818 34.6185 55.4896 35.4453 56.1016 36.1094C56.7135 36.7734 57.3841 37.2943 58.1133 37.6719C58.8424 38.0495 59.5326 38.3294 60.1836 38.5117C60.8477 38.694 61.4271 38.8112 61.9219 38.8633C62.4297 38.9023 62.7617 38.9219 62.918 38.9219H71.8438V15.9922H76.9219V41.4414ZM124.152 21.0703H112.961V44H107.883V21.0703H96.6719V15.9922H124.152V21.0703ZM171.344 41.4414C171.344 41.806 171.279 42.1445 171.148 42.457C171.018 42.7695 170.836 43.043 170.602 43.2773C170.367 43.4987 170.094 43.6745 169.781 43.8047C169.469 43.9349 169.137 44 168.785 44H157.34C156.259 44 155.165 43.8828 154.059 43.6484C152.952 43.4141 151.878 43.056 150.836 42.5742C149.807 42.0794 148.837 41.4544 147.926 40.6992C147.014 39.944 146.214 39.0521 145.523 38.0234C144.846 36.9818 144.312 35.7969 143.922 34.4688C143.531 33.1276 143.336 31.6367 143.336 29.9961V15.9922H148.414V29.9961C148.414 31.4284 148.609 32.6393 149 33.6289C149.404 34.6185 149.911 35.4453 150.523 36.1094C151.135 36.7734 151.806 37.2943 152.535 37.6719C153.264 38.0495 153.954 38.3294 154.605 38.5117C155.27 38.694 155.849 38.8112 156.344 38.8633C156.852 38.9023 157.184 38.9219 157.34 38.9219H166.266V15.9922H171.344V41.4414ZM221.25 25.4062C221.25 26.5651 221.107 27.6003 220.82 28.5117C220.534 29.4232 220.143 30.2305 219.648 30.9336C219.167 31.6237 218.607 32.2161 217.969 32.7109C217.331 33.2057 216.66 33.6159 215.957 33.9414C215.267 34.2539 214.564 34.4818 213.848 34.625C213.145 34.7682 212.48 34.8398 211.855 34.8398L222.461 44H214.609L204.023 34.8398H200.371V29.7617H211.855C212.493 29.7096 213.073 29.5794 213.594 29.3711C214.128 29.1497 214.583 28.8568 214.961 28.4922C215.352 28.1276 215.651 27.6914 215.859 27.1836C216.068 26.6628 216.172 26.0703 216.172 25.4062V22.2031C216.172 21.9167 216.133 21.7018 216.055 21.5586C215.99 21.4023 215.898 21.2917 215.781 21.2266C215.677 21.1484 215.56 21.1029 215.43 21.0898C215.312 21.0768 215.202 21.0703 215.098 21.0703H198.34V44H193.262V18.5508C193.262 18.1992 193.327 17.8672 193.457 17.5547C193.587 17.2422 193.763 16.9688 193.984 16.7344C194.219 16.5 194.492 16.3177 194.805 16.1875C195.117 16.0573 195.456 15.9922 195.82 15.9922H215.098C216.23 15.9922 217.188 16.2005 217.969 16.6172C218.75 17.0208 219.382 17.5352 219.863 18.1602C220.358 18.7721 220.71 19.4362 220.918 20.1523C221.139 20.8685 221.25 21.5391 221.25 22.1641V25.4062ZM265.375 32.5547H249.34V27.4375H265.375V32.5547ZM267.66 44H249.34C248.637 44 247.868 43.8763 247.035 43.6289C246.202 43.3815 245.427 42.9779 244.711 42.418C244.008 41.8451 243.415 41.1094 242.934 40.2109C242.465 39.2995 242.23 38.1862 242.23 36.8711V18.5508C242.23 18.1992 242.296 17.8672 242.426 17.5547C242.556 17.2422 242.732 16.9688 242.953 16.7344C243.188 16.5 243.461 16.3177 243.773 16.1875C244.086 16.0573 244.424 15.9922 244.789 15.9922H267.66V21.0703H247.309V36.8711C247.309 37.5352 247.484 38.043 247.836 38.3945C248.188 38.7461 248.702 38.9219 249.379 38.9219H267.66V44Z" fill="#4CD700"/>
<path d="M0.960938 88L9.98438 59.3672H13.3242L22.9336 88H19.3789L16.6445 79.3281H6.83984L4.26172 88H0.960938ZM7.73828 76.2422H15.6875L13.2461 68.3125C12.4909 65.8776 11.9375 63.8984 11.5859 62.375C11.2865 64.2109 10.8633 66.0339 10.3164 67.8438L7.73828 76.2422ZM26.5945 88V59.3672H37.0047C39.1792 59.3672 40.7807 59.6341 41.8094 60.168C42.851 60.7018 43.7039 61.5938 44.368 62.8438C45.032 64.0807 45.3641 65.5195 45.3641 67.1602C45.3641 69.3216 44.7977 71.0729 43.6648 72.4141C42.5451 73.7552 40.9109 74.6081 38.7625 74.9727C39.6349 75.4935 40.299 76.0208 40.7547 76.5547C41.6792 77.6484 42.493 78.8659 43.1961 80.207L47.2977 88H43.3914L40.2664 82.043C39.0555 79.7122 38.1375 78.1432 37.5125 77.3359C36.9005 76.5286 36.3016 75.9883 35.7156 75.7148C35.1427 75.4284 34.3354 75.2852 33.2938 75.2852H29.7V88H26.5945ZM29.7 72.0039H36.3797C37.838 72.0039 38.9448 71.8281 39.7 71.4766C40.4552 71.125 41.0542 70.5716 41.4969 69.8164C41.9396 69.0612 42.1609 68.1823 42.1609 67.1797C42.1609 65.7344 41.7378 64.6016 40.8914 63.7812C40.0451 62.9479 38.7885 62.5312 37.1219 62.5312H29.7V72.0039ZM68.1461 77.9609L71.2711 78.918C70.581 82.1341 69.3701 84.5365 67.6383 86.125C65.9195 87.7005 63.8232 88.4883 61.3492 88.4883C59.1747 88.4883 57.3128 87.9609 55.7633 86.9062C54.2268 85.8385 52.9638 84.1328 51.9742 81.7891C50.9977 79.4453 50.5094 76.6784 50.5094 73.4883C50.5094 70.3372 50.9977 67.6745 51.9742 65.5C52.9638 63.3125 54.2984 61.6654 55.9781 60.5586C57.6578 59.4388 59.5328 58.8789 61.6031 58.8789C63.8688 58.8789 65.8154 59.5885 67.443 61.0078C69.0706 62.4141 70.2099 64.4844 70.8609 67.2188L67.8141 68.0977C66.7724 64.1133 64.6826 62.1211 61.5445 62.1211C59.982 62.1211 58.6279 62.5247 57.482 63.332C56.3362 64.1263 55.4182 65.3698 54.7281 67.0625C54.051 68.7552 53.7125 70.8971 53.7125 73.4883C53.7125 77.4076 54.4026 80.3503 55.7828 82.3164C57.163 84.2695 58.999 85.2461 61.2906 85.2461C62.9833 85.2461 64.4417 84.6471 65.6656 83.4492C66.9026 82.2383 67.7294 80.4089 68.1461 77.9609ZM76.3383 88V59.3672H79.4437V71.125H91.6508V59.3672H94.7562V88H91.6508V74.5039H79.4437V88H76.3383ZM101.816 88V59.3672H104.921V88H101.816ZM117.586 88V62.7461H109.852V59.3672H128.465V62.7461H120.691V88H117.586ZM132.868 88V59.3672H149.841V62.7461H135.973V71.5156H148.962V74.875H135.973V84.6211H150.387V88H132.868ZM172.545 77.9609L175.67 78.918C174.979 82.1341 173.768 84.5365 172.037 86.125C170.318 87.7005 168.222 88.4883 165.748 88.4883C163.573 88.4883 161.711 87.9609 160.162 86.9062C158.625 85.8385 157.362 84.1328 156.373 81.7891C155.396 79.4453 154.908 76.6784 154.908 73.4883C154.908 70.3372 155.396 67.6745 156.373 65.5C157.362 63.3125 158.697 61.6654 160.377 60.5586C162.056 59.4388 163.931 58.8789 166.002 58.8789C168.267 58.8789 170.214 59.5885 171.841 61.0078C173.469 62.4141 174.608 64.4844 175.259 67.2188L172.212 68.0977C171.171 64.1133 169.081 62.1211 165.943 62.1211C164.38 62.1211 163.026 62.5247 161.88 63.332C160.735 64.1263 159.817 65.3698 159.127 67.0625C158.449 68.7552 158.111 70.8971 158.111 73.4883C158.111 77.4076 158.801 80.3503 160.181 82.3164C161.561 84.2695 163.397 85.2461 165.689 85.2461C167.382 85.2461 168.84 84.6471 170.064 83.4492C171.301 82.2383 172.128 80.4089 172.545 77.9609ZM186.772 88V62.7461H179.038V59.3672H197.651V62.7461H189.877V88H186.772ZM217.327 59.3672H220.452V75.9102C220.452 78.6836 220.179 80.9622 219.632 82.7461C219.098 84.5169 218.115 85.9167 216.683 86.9453C215.264 87.974 213.454 88.4883 211.253 88.4883C208.154 88.4883 205.83 87.5638 204.28 85.7148C202.744 83.8659 201.976 80.5977 201.976 75.9102V59.3672H205.081V75.8906C205.081 78.4818 205.283 80.3568 205.687 81.5156C206.09 82.6745 206.748 83.5599 207.659 84.1719C208.584 84.7708 209.704 85.0703 211.019 85.0703C213.232 85.0703 214.834 84.4453 215.823 83.1953C216.826 81.9453 217.327 79.5104 217.327 75.8906V59.3672ZM226.848 88V59.3672H237.258C239.432 59.3672 241.034 59.6341 242.062 60.168C243.104 60.7018 243.957 61.5938 244.621 62.8438C245.285 64.0807 245.617 65.5195 245.617 67.1602C245.617 69.3216 245.051 71.0729 243.918 72.4141C242.798 73.7552 241.164 74.6081 239.016 74.9727C239.888 75.4935 240.552 76.0208 241.008 76.5547C241.932 77.6484 242.746 78.8659 243.449 80.207L247.551 88H243.645L240.52 82.043C239.309 79.7122 238.391 78.1432 237.766 77.3359C237.154 76.5286 236.555 75.9883 235.969 75.7148C235.396 75.4284 234.589 75.2852 233.547 75.2852H229.953V88H226.848ZM229.953 72.0039H236.633C238.091 72.0039 239.198 71.8281 239.953 71.4766C240.708 71.125 241.307 70.5716 241.75 69.8164C242.193 69.0612 242.414 68.1823 242.414 67.1797C242.414 65.7344 241.991 64.6016 241.145 63.7812C240.298 62.9479 239.042 62.5312 237.375 62.5312H229.953V72.0039ZM251.798 88V59.3672H268.77V62.7461H254.903V71.5156H267.891V74.875H254.903V84.6211H269.317V88H251.798Z" fill="white"/>
</svg>
